<?xml version="1.0" encoding="iso-8859-1"?>
<!-- Generator: Adobe Illustrator 19.0.0, SVG Export Plug-In . SVG Version: 6.00 Build 0)  -->
<svg version="1.1" id="Layer_1" xmlns="http://www.w3.org/2000/svg" xmlns:xlink="http://www.w3.org/1999/xlink" x="0px" y="0px"
	 viewBox="0 0 511.999 511.999" style="enable-background:new 0 0 511.999 511.999;" xml:space="preserve">
<g>
	<g>
		<path d="M370.901,248.589c0.003,0,0.008,0,0.011,0c19.789-0.003,38.392-7.711,52.381-21.7l81.473-81.474
			c9.643-9.643,9.643-25.277,0-34.92s-25.277-9.643-34.92,0l-81.474,81.474c-4.664,4.664-10.868,7.233-17.468,7.235
			c-6.598,0.002-12.799-2.566-17.461-7.228c-4.662-4.66-7.228-10.861-7.227-17.459c0.002-6.599,2.571-12.802,7.235-17.466
			l81.477-81.474c9.642-9.643,9.643-25.277,0-34.92c-9.642-9.642-25.277-9.643-34.92,0l-81.479,81.474
			c-13.989,13.989-21.697,32.589-21.7,52.376c-0.003,11.247,2.491,22.108,7.205,31.959l-42.302,42.302L71.083,58.115
			c-9.642-9.642-25.277-9.643-34.92-0.002C12.843,81.434,0,112.438,0,145.416c-0.002,32.978,12.842,63.984,36.162,87.303
			l68.43,68.428c9.642,9.642,25.279,9.643,34.92-0.002l52.381-52.381l34.922,34.92L74.078,436.422
			c-9.643,9.643-9.643,25.277,0,34.92c4.822,4.822,11.141,7.233,17.459,7.233c6.32,0,12.639-2.412,17.459-7.233l152.735-152.735
			l135.276,135.276c4.822,4.822,11.141,7.233,17.459,7.233c6.32,0,12.639-2.412,17.459-7.233c9.643-9.643,9.643-25.277,0-34.92
			L296.651,283.687l42.303-42.302C348.805,246.096,359.658,248.589,370.901,248.589z M122.052,248.766l-50.971-50.969
			c-13.991-13.991-21.697-32.594-21.697-52.381c0-11.243,2.487-22.105,7.204-31.956l100.382,100.384L122.052,248.766z"/>
	</g>
</g>
<g>
</g>
<g>
</g>
<g>
</g>
<g>
</g>
<g>
</g>
<g>
</g>
<g>
</g>
<g>
</g>
<g>
</g>
<g>
</g>
<g>
</g>
<g>
</g>
<g>
</g>
<g>
</g>
<g>
</g>
</svg>
