<?xml version="1.0" standalone="no"?>
<!DOCTYPE svg PUBLIC "-//W3C//DTD SVG 20010904//EN"
 "http://www.w3.org/TR/2001/REC-SVG-20010904/DTD/svg10.dtd">
<svg version="1.0" xmlns="http://www.w3.org/2000/svg"
 width="624.000000pt" height="627.000000pt" viewBox="0 0 624.000000 627.000000"
 preserveAspectRatio="xMidYMid meet">

<g transform="translate(0.000000,627.000000) scale(0.100000,-0.100000)"
fill="#000000" stroke="none">
<path d="M2800 6249 c-380 -40 -805 -169 -1136 -344 -498 -262 -933 -681
-1224 -1175 -31 -52 -138 -295 -155 -350 -4 -14 -29 -72 -56 -130 -26 -58 -50
-121 -52 -140 -2 -19 -11 -49 -20 -67 -10 -18 -22 -56 -28 -85 -6 -29 -17 -60
-24 -68 -28 -32 -65 -219 -82 -415 -4 -49 -7 -227 -7 -395 2 -329 12 -426 70
-680 14 -63 32 -140 38 -170 7 -30 20 -68 28 -85 8 -16 25 -61 38 -100 52
-163 162 -391 276 -575 160 -260 552 -700 687 -772 17 -9 28 -17 23 -18 -13 0
234 -181 274 -199 19 -9 60 -33 92 -54 70 -46 318 -168 328 -162 9 5 132 -43
140 -55 7 -10 281 -96 345 -108 28 -6 77 -18 110 -27 33 -9 92 -18 130 -19
117 -4 126 -6 120 -16 -4 -6 8 -10 27 -11 18 0 42 -3 53 -5 52 -13 457 -16
564 -5 279 28 554 87 732 156 52 20 139 53 194 72 98 34 191 83 248 130 16 13
35 23 43 23 23 0 172 78 244 127 136 94 350 276 350 299 0 8 10 14 21 14 32 0
206 182 336 351 142 184 241 336 304 462 28 56 61 122 74 147 46 90 135 313
141 353 3 23 9 51 14 62 5 11 11 50 13 86 2 37 9 75 15 85 9 15 10 10 6 -26
-10 -71 7 -38 22 42 7 40 17 93 22 118 29 135 32 168 21 219 -11 51 -7 87 9
77 4 -2 6 14 4 35 -3 22 -6 39 -8 37 -7 -8 -18 -76 -19 -120 0 -25 -3 -44 -7
-41 -8 4 -10 -18 -14 -117 -1 -25 -2 -59 -3 -77 0 -17 -8 -38 -15 -46 -15 -14
-54 -145 -61 -202 -2 -16 -11 -34 -19 -41 -9 -6 -30 -56 -47 -110 -17 -55 -44
-127 -60 -161 -16 -35 -43 -101 -60 -147 -31 -87 -56 -126 -80 -126 -8 0 -27
-14 -42 -30 -16 -17 -24 -30 -19 -30 6 0 20 12 32 27 l21 28 -16 -32 c-8 -18
-15 -37 -15 -43 0 -16 -120 -200 -130 -200 -5 0 -23 -25 -40 -55 -18 -31 -43
-69 -58 -86 -17 -21 -22 -33 -14 -38 9 -5 6 -14 -8 -29 -12 -12 -25 -22 -30
-22 -6 0 -28 -13 -50 -29 -24 -17 -48 -27 -59 -24 -13 3 -27 -6 -47 -33 -16
-20 -42 -50 -59 -66 -16 -15 -25 -28 -19 -28 5 0 15 5 22 12 7 7 12 8 12 3 0
-6 -17 -25 -37 -44 -21 -18 -30 -28 -20 -21 31 22 18 -5 -21 -43 -21 -20 -44
-37 -51 -37 -8 0 -3 10 13 25 31 29 32 33 6 31 -21 -1 -49 -33 -50 -57 0 -20
-38 -55 -70 -64 -26 -8 -70 -35 -57 -35 5 0 -3 -15 -17 -33 -14 -19 -23 -37
-20 -40 12 -11 -18 -37 -42 -37 -16 0 -22 4 -18 15 4 10 -13 5 -55 -15 -34
-17 -61 -34 -61 -40 0 -5 -5 -10 -11 -10 -6 0 -22 -14 -36 -30 -24 -29 -52
-43 -37 -18 4 7 3 8 -5 4 -6 -4 -9 -11 -6 -16 3 -4 -9 -13 -25 -19 -18 -6 -28
-6 -25 -1 4 6 2 10 -3 10 -6 0 -19 -15 -30 -34 -18 -30 -24 -34 -62 -33 -26 1
-47 -5 -54 -14 -6 -8 -31 -23 -56 -34 -47 -19 -81 -42 -45 -29 15 5 17 4 9 -5
-10 -10 -54 -30 -144 -62 -19 -6 -63 -23 -98 -36 -35 -13 -67 -21 -73 -18 -5
3 -21 -5 -36 -19 -30 -28 -56 -34 -47 -12 5 12 0 13 -33 3 -21 -6 -43 -18 -49
-25 -6 -8 -28 -16 -49 -18 -21 -1 -41 -7 -44 -13 -9 -14 -57 -31 -89 -31 -16
0 -46 -15 -71 -35 -24 -19 -51 -35 -60 -35 -14 0 -14 2 -1 11 12 9 11 10 -7 6
-39 -9 -35 11 4 24 32 10 35 13 17 19 -11 5 -39 5 -62 0 -23 -4 -42 -5 -42 -3
0 2 -10 -3 -22 -11 -25 -18 -84 -21 -93 -6 -4 6 -11 7 -17 4 -6 -4 -138 -9
-292 -12 -236 -3 -291 -1 -342 12 -34 9 -75 16 -92 16 -16 0 -46 7 -66 15 -20
8 -64 18 -99 22 -34 3 -73 11 -87 18 -14 7 -47 15 -75 19 -65 9 -115 25 -115
37 0 5 -8 9 -18 9 -9 0 -58 16 -107 35 -52 21 -91 31 -93 25 -6 -16 -21 -12
-45 13 -12 13 -101 64 -197 113 -96 49 -226 124 -288 166 -63 43 -120 78 -128
78 -24 0 -84 44 -84 61 0 9 -28 38 -63 64 -34 26 -91 78 -127 114 -36 37 -89
88 -118 114 -29 26 -50 52 -47 57 3 6 0 10 -8 10 -7 0 -24 12 -38 27 -19 21
-20 24 -4 14 11 -7 8 -2 -7 11 -14 14 -47 54 -73 89 -54 73 -62 83 -46 52 6
-13 10 -23 7 -23 -5 0 -66 88 -66 96 0 3 -16 26 -36 50 -20 24 -31 44 -25 44
18 0 13 15 -20 56 -17 22 -37 54 -45 72 -7 19 -32 56 -54 84 -22 28 -40 59
-40 69 0 10 -5 21 -10 24 -6 4 -8 10 -5 15 3 4 -2 13 -10 20 -8 7 -15 19 -15
27 0 12 -61 180 -121 330 -11 28 -22 66 -24 83 -2 17 -11 46 -20 63 -29 57
-55 131 -55 157 0 20 2 22 11 10 8 -12 9 -11 5 5 -2 11 -12 54 -22 95 -9 41
-21 80 -26 87 -13 17 -19 736 -6 744 5 4 12 61 15 128 4 70 11 128 17 134 7 7
18 44 25 82 8 39 17 75 21 80 5 6 11 28 15 50 18 107 128 408 211 575 47 96
92 179 99 185 7 5 32 46 56 90 23 44 48 85 54 90 19 16 45 63 45 80 0 8 5 15
10 15 6 0 9 4 8 8 -4 13 75 121 88 122 6 0 34 26 63 58 28 31 62 68 74 82 13
14 37 46 53 72 16 27 36 48 45 48 9 0 41 31 70 68 82 102 169 175 183 153 7
-11 159 90 229 152 44 39 97 73 97 63 0 -2 60 26 133 63 72 37 182 89 242 115
61 26 125 55 143 64 18 9 41 17 50 18 9 1 78 19 152 39 74 21 144 39 155 40
11 0 38 6 60 12 101 29 245 41 555 47 223 5 600 -26 633 -52 7 -5 55 -19 107
-31 97 -23 181 -50 395 -126 233 -83 250 -90 260 -101 6 -6 51 -33 100 -59
106 -57 212 -122 350 -215 112 -75 139 -98 271 -222 51 -48 107 -94 123 -103
17 -8 31 -20 31 -26 0 -6 24 -36 53 -67 137 -147 213 -258 350 -507 91 -167
238 -482 248 -530 4 -22 19 -72 33 -112 36 -99 67 -241 120 -554 55 -322 69
-364 61 -188 -15 353 -106 794 -224 1082 -44 109 -189 373 -277 508 -225 342
-526 651 -849 871 -119 81 -305 188 -326 188 -20 0 -100 32 -129 52 -72 49
-439 174 -580 199 -30 5 -113 18 -185 29 -71 11 -161 27 -200 36 -83 19 -516
28 -655 13z m2520 -5158 c-11 -21 -30 -37 -30 -25 0 8 30 44 37 44 2 0 -1 -9
-7 -19z"/>
<path d="M3163 5720 c-46 -87 -83 -161 -83 -164 0 -3 11 -6 23 -6 18 0 28 10
42 40 18 40 19 40 64 36 25 -2 58 -5 72 -5 21 -1 29 -9 42 -41 11 -29 21 -40
36 -40 12 0 21 3 21 7 0 11 -121 317 -128 325 -4 4 -44 -65 -89 -152z m119
-37 c3 -15 -4 -18 -42 -15 -24 2 -46 5 -48 7 -2 1 9 27 24 57 l27 53 18 -42
c10 -24 19 -51 21 -60z"/>
<path d="M2546 5803 c-9 -32 -76 -315 -76 -324 0 -5 9 -9 20 -9 15 0 22 11 31
45 11 44 12 44 68 55 31 6 62 13 68 15 7 2 25 -12 39 -31 19 -24 34 -34 48
-32 12 2 21 6 21 9 0 7 -205 289 -210 289 -2 0 -6 -8 -9 -17z m92 -179 c-3 -2
-25 -7 -51 -10 -51 -7 -49 -15 -25 80 l9 39 36 -53 c19 -28 33 -54 31 -56z"/>
<path d="M3617 5806 c-73 -27 -109 -79 -109 -157 2 -181 244 -231 300 -62 12
37 11 38 -43 47 -22 4 -47 9 -56 12 -11 3 -18 -3 -22 -15 -4 -16 2 -21 27 -27
44 -9 47 -13 36 -34 -34 -63 -138 -56 -180 12 -46 76 -1 181 81 188 53 5 72
-1 105 -34 28 -28 36 -32 50 -22 14 11 15 15 3 35 -34 54 -125 82 -192 57z"/>
<path d="M3978 5568 c-31 -79 -53 -146 -49 -150 19 -20 34 -9 55 42 12 30 26
54 31 53 7 -1 42 -113 44 -144 1 -3 12 -11 26 -17 14 -6 25 -11 25 -9 0 1 -9
36 -20 77 -25 94 -25 90 8 90 57 0 96 74 68 128 -15 29 -85 72 -117 72 -10 0
-34 -49 -71 -142z m122 77 c57 -29 27 -109 -35 -97 -14 2 -28 8 -31 13 -5 9
25 99 33 99 2 0 17 -7 33 -15z"/>
<path d="M2095 5675 c-22 -9 -44 -20 -49 -25 -10 -10 94 -300 109 -300 6 0 38
13 72 30 77 36 103 73 103 145 0 58 -23 110 -62 138 -35 26 -120 32 -173 12z
m149 -56 c57 -50 61 -121 10 -173 -26 -25 -70 -44 -80 -33 -7 7 -84 210 -81
213 10 10 57 23 84 23 22 1 43 -8 67 -30z"/>
<path d="M4315 5417 c-70 -130 -75 -142 -59 -154 21 -16 19 -19 107 148 61
117 64 126 47 137 -17 10 -26 -2 -95 -131z"/>
<path d="M1815 5540 c-3 -6 18 -52 48 -103 30 -50 54 -93 52 -95 -3 -3 -111
25 -258 67 l-68 20 19 -32 c11 -18 50 -83 86 -144 37 -62 70 -113 74 -113 4 0
13 4 21 9 10 7 1 29 -42 102 -31 52 -52 95 -47 97 4 2 74 -16 155 -38 81 -23
149 -39 151 -37 8 8 -159 277 -172 277 -7 0 -16 -5 -19 -10z"/>
<path d="M4570 5379 c-62 -25 -101 -86 -102 -159 0 -62 30 -113 83 -140 49
-25 71 -25 87 0 11 18 10 20 -13 20 -62 0 -115 55 -115 120 0 67 61 130 125
130 38 0 92 -33 107 -65 14 -30 19 -31 35 -5 11 16 9 24 -14 51 -45 53 -128
74 -193 48z"/>
<path d="M2930 5340 c-483 -40 -948 -244 -1296 -570 -232 -217 -395 -448 -485
-686 -28 -76 -65 -165 -81 -197 -16 -32 -27 -64 -25 -70 2 -7 -4 -29 -14 -49
-11 -21 -19 -48 -19 -61 0 -14 -7 -30 -15 -37 -42 -35 -69 -252 -69 -555 1
-222 9 -306 46 -485 11 -52 24 -115 29 -139 5 -24 13 -49 17 -55 5 -6 23 -54
41 -106 58 -169 186 -398 305 -546 137 -171 331 -374 357 -374 6 0 21 -9 33
-20 54 -50 154 -124 186 -137 19 -9 53 -28 75 -43 44 -30 191 -101 215 -104
24 -3 93 -28 115 -42 31 -19 199 -74 227 -74 14 0 43 -7 64 -16 25 -10 66 -16
117 -16 54 1 84 -3 93 -12 22 -23 303 -30 464 -12 209 23 423 72 509 115 20
11 68 28 108 40 44 13 102 41 147 71 40 28 79 50 85 50 18 0 121 55 172 92 86
61 222 181 227 200 2 11 10 17 18 14 16 -6 179 164 243 254 25 36 52 71 59 79
28 29 126 188 155 251 16 36 42 90 57 120 69 134 101 240 100 325 0 49 19 87
21 40 1 -33 22 54 40 169 8 51 7 76 -1 97 -15 34 -5 73 11 49 9 -12 10 -12 5
3 -3 10 -6 28 -6 39 0 26 -9 19 -16 -13 -17 -72 -25 -130 -25 -183 0 -33 -4
-65 -10 -72 -14 -17 -49 -135 -43 -145 2 -4 -3 -12 -12 -17 -9 -5 -31 -51 -49
-103 -72 -207 -103 -273 -132 -277 -11 -2 -29 -13 -39 -25 l-19 -22 24 20 24
20 -8 -25 c-10 -35 -85 -159 -101 -168 -18 -10 -85 -122 -73 -122 6 0 5 -8 -1
-20 -6 -11 -14 -18 -19 -16 -4 3 -22 -4 -39 -14 -17 -11 -38 -17 -46 -14 -20
8 -56 -13 -56 -33 0 -13 2 -14 18 -2 15 13 16 12 3 -3 -7 -10 -17 -16 -21 -13
-4 2 -16 -5 -26 -17 -17 -19 -17 -21 -1 -15 25 9 21 -4 -10 -31 -16 -13 -22
-21 -15 -17 22 11 12 -13 -14 -34 -33 -26 -53 -28 -31 -3 21 23 21 31 1 28
-18 -3 -38 -32 -30 -45 7 -12 -24 -37 -54 -44 -24 -6 -54 -53 -55 -87 0 -19
-35 -26 -45 -9 -12 19 -66 -7 -112 -54 -31 -32 -43 -38 -63 -33 -18 5 -25 2
-25 -8 0 -25 -29 -47 -49 -37 -12 7 -30 2 -64 -18 -26 -15 -44 -30 -41 -34 7
-7 -101 -57 -123 -57 -8 0 -30 -7 -49 -16 -19 -9 -37 -14 -40 -11 -3 3 -14 -3
-25 -14 -21 -21 -45 -26 -33 -7 5 8 0 9 -17 5 -13 -4 -30 -7 -37 -7 -7 0 -10
-5 -7 -10 6 -10 5 -11 -32 -15 -12 -1 -29 -9 -37 -18 -19 -18 -55 -31 -63 -23
-3 3 -16 -5 -28 -18 -12 -13 -33 -29 -46 -36 -22 -12 -23 -12 -10 4 12 14 12
16 -3 10 -9 -3 -16 -1 -16 4 0 6 9 14 20 17 11 3 20 11 20 16 0 6 -4 7 -10 4
-5 -3 -10 -2 -10 4 0 9 -61 -3 -83 -16 -4 -2 -112 -6 -240 -7 -176 -2 -245 0
-284 11 -29 8 -57 12 -62 9 -5 -3 -25 1 -45 9 -19 8 -53 15 -75 15 -22 0 -41
4 -43 10 -1 5 -21 10 -43 11 -22 1 -67 14 -100 29 -99 44 -136 54 -145 40 -6
-10 -15 -6 -33 14 -14 14 -77 53 -140 85 -64 33 -151 83 -194 112 -43 30 -82
52 -86 51 -16 -5 -67 29 -67 46 0 9 -22 33 -47 52 -59 44 -199 182 -196 192 2
4 -3 8 -11 8 -7 0 -20 8 -27 17 -12 15 -12 16 1 8 8 -5 -2 8 -22 29 -21 22
-38 45 -38 51 0 7 -7 18 -15 25 -13 11 -15 10 -9 -6 5 -18 4 -18 -10 1 -8 11
-20 25 -26 32 -5 7 -10 16 -10 21 0 5 -9 17 -21 28 -11 10 -18 26 -15 36 2 11
-6 31 -20 47 -13 16 -24 34 -24 40 0 6 -16 29 -35 50 -20 22 -38 50 -40 63 -3
13 -9 32 -14 43 -5 11 -26 67 -46 125 -20 58 -42 116 -50 130 -7 14 -15 43
-18 64 -4 22 -10 42 -14 45 -12 9 -43 80 -43 99 0 15 2 15 10 2 7 -11 10 -11
10 -2 0 21 -21 106 -31 124 -5 10 -9 62 -9 115 -2 340 -2 402 5 412 3 7 6 50
6 96 0 47 3 85 8 85 5 0 15 25 22 55 7 30 16 55 21 55 4 0 8 14 8 31 0 53 77
275 140 405 33 68 64 124 69 124 4 0 20 27 35 60 15 33 38 72 52 87 14 15 23
32 20 39 -5 13 61 110 74 107 4 -1 25 17 45 40 20 23 44 51 54 62 10 11 26 35
35 53 9 17 23 32 31 32 8 0 32 27 54 59 41 60 111 115 119 93 4 -13 99 50 166
111 22 20 49 37 59 37 11 0 31 8 45 19 35 24 288 141 306 141 8 0 17 7 20 15
3 9 11 15 18 14 16 -3 145 26 185 42 15 6 39 13 53 15 14 2 50 8 80 14 30 6
170 12 310 14 257 4 429 -7 480 -32 14 -7 52 -18 85 -26 70 -17 291 -90 352
-117 24 -11 50 -19 58 -19 8 0 15 -4 15 -9 0 -5 15 -15 33 -22 110 -45 367
-213 467 -306 41 -39 90 -78 108 -87 17 -9 32 -22 32 -29 0 -7 29 -44 65 -82
36 -39 88 -108 116 -155 74 -127 271 -519 264 -529 -3 -5 3 -29 14 -53 21 -49
55 -198 99 -428 16 -85 37 -171 45 -190 15 -34 15 -32 10 60 -6 120 -36 340
-63 462 -53 236 -109 376 -244 606 -116 197 -359 471 -544 614 -104 81 -319
211 -333 203 -9 -6 -53 12 -95 40 -54 37 -331 123 -449 140 -60 9 -144 24
-185 33 -41 8 -81 17 -87 18 -43 8 -303 11 -383 4z"/>
<path d="M1375 5248 c-33 -28 -61 -54 -63 -59 -2 -4 41 -61 94 -126 54 -65 99
-120 100 -122 6 -7 134 103 134 115 0 28 -23 23 -71 -15 l-51 -41 -34 41 c-19
23 -34 44 -34 47 0 4 21 22 45 41 48 36 52 43 32 59 -10 9 -25 2 -61 -28 l-48
-40 -26 31 -26 31 50 43 c44 39 47 45 34 59 -13 13 -22 9 -75 -36z"/>
<path d="M4871 5108 c-25 -13 -53 -35 -64 -49 -39 -53 -39 -145 0 -198 24 -33
98 -71 138 -71 41 0 114 38 139 72 28 39 33 125 11 173 -39 81 -144 115 -224
73z m147 -46 c31 -20 52 -63 52 -106 0 -45 -55 -111 -100 -120 -46 -9 -101 14
-127 53 -77 115 58 249 175 173z"/>
<path d="M1139 5034 c-11 -13 4 -32 102 -130 110 -110 116 -114 132 -96 16 17
11 23 -102 130 -103 97 -121 110 -132 96z"/>
<path d="M943 4808 c-55 -74 -60 -85 -47 -98 14 -13 18 -12 37 15 12 16 31 40
43 54 l20 23 39 -93 c21 -52 49 -118 62 -147 l24 -54 71 92 c55 72 68 94 57
101 -22 14 -24 12 -68 -46 -23 -30 -45 -55 -49 -55 -4 0 -34 65 -67 145 -32
80 -59 145 -60 145 0 0 -28 -37 -62 -82z"/>
<path d="M5166 4705 c-88 -66 -124 -100 -119 -109 28 -45 70 -96 80 -96 22 0
25 22 6 48 -11 15 -22 32 -26 38 -4 8 36 44 103 94 61 45 110 86 110 90 0 4
-6 13 -13 19 -11 8 -42 -10 -141 -84z"/>
<path d="M700 4444 c0 -3 48 -71 107 -151 96 -130 108 -143 120 -127 11 15 10
21 -2 38 -38 52 -38 59 -4 119 33 57 34 57 80 57 34 0 49 4 53 16 4 9 5 18 4
20 -4 3 -82 11 -193 19 -44 3 -99 8 -122 11 -24 2 -43 2 -43 -2z m188 -54 c21
0 22 -1 8 -27 -35 -68 -39 -69 -74 -20 -18 25 -32 48 -32 52 0 4 17 5 38 1 20
-3 47 -6 60 -6z"/>
<path d="M5497 4424 c-3 -2 -231 -14 -269 -14 -39 0 -44 -5 -29 -29 6 -9 25
-14 53 -13 l43 2 34 -64 34 -64 -27 -35 c-23 -30 -25 -38 -15 -55 12 -18 20
-10 107 102 52 66 103 133 113 148 l20 27 -31 -2 c-18 -1 -32 -3 -33 -3z m-58
-86 c-18 -24 -36 -47 -40 -52 -7 -8 -49 63 -49 84 0 6 25 10 61 10 l61 0 -33
-42z"/>
<path d="M1855 4368 c-16 -5 -70 -12 -119 -16 -69 -5 -91 -11 -100 -25 -17
-26 11 -67 69 -102 113 -68 157 -135 189 -286 11 -54 24 -81 69 -140 62 -83
88 -136 113 -236 9 -37 32 -94 50 -128 18 -33 56 -118 84 -190 29 -71 58 -141
66 -155 17 -31 64 -175 64 -195 0 -28 60 -129 88 -147 29 -19 116 -25 141 -9
10 7 17 41 22 118 5 81 15 132 39 203 51 151 150 410 180 470 65 130 123 236
135 250 8 9 26 42 40 74 14 32 41 82 60 111 18 30 39 72 45 94 12 46 55 86
102 96 217 44 238 55 238 125 0 69 -13 75 -147 72 -65 -1 -202 -2 -305 -1
-207 0 -242 -8 -254 -58 -9 -34 3 -52 52 -79 65 -36 61 -78 -27 -285 -28 -63
-74 -159 -103 -212 -29 -53 -64 -123 -76 -154 -28 -68 -57 -113 -74 -113 -17
0 -68 57 -98 110 -35 61 -103 226 -128 309 -14 48 -32 82 -61 115 -40 45 -79
127 -79 165 0 29 22 46 100 76 83 32 112 63 108 114 l-3 36 -225 1 c-124 1
-238 -3 -255 -8z"/>
<path d="M4460 3483 c-37 -17 -115 -19 -230 -8 -56 6 -69 4 -91 -14 -26 -20
-43 -64 -54 -142 -5 -33 -20 -64 -56 -112 -31 -41 -52 -81 -56 -104 -3 -21
-38 -112 -78 -203 -92 -208 -118 -272 -140 -338 -9 -29 -29 -71 -43 -93 -23
-35 -26 -37 -38 -21 -22 32 -83 220 -160 492 -41 146 -93 320 -115 387 -40
120 -41 121 -80 137 -52 21 -206 22 -233 1 -13 -10 -44 -15 -90 -15 -85 0
-120 -15 -124 -52 -4 -30 -1 -32 94 -101 60 -44 61 -47 89 -133 23 -75 26
-100 21 -154 -10 -103 -23 -192 -35 -230 -6 -19 -11 -80 -11 -135 -1 -56 -7
-116 -14 -137 -7 -20 -14 -71 -15 -115 -1 -43 -6 -96 -12 -118 -18 -73 -59
-190 -73 -208 -15 -19 -82 -34 -195 -42 -121 -8 -206 -75 -157 -123 15 -15 37
-17 156 -14 106 2 167 -3 252 -18 61 -11 151 -20 200 -20 81 0 91 2 113 25 46
45 28 88 -44 105 -30 7 -59 23 -77 41 -24 26 -28 36 -27 92 0 34 10 118 22
187 12 70 21 169 21 226 0 106 15 175 50 232 18 29 23 32 37 20 29 -23 56
-100 64 -181 9 -92 25 -143 89 -293 34 -79 50 -130 55 -180 8 -74 31 -140 58
-163 17 -14 67 -8 67 8 0 5 21 39 46 76 25 37 57 100 71 141 13 40 35 88 48
106 13 18 51 76 84 128 136 219 185 290 197 290 6 0 20 -19 30 -42 13 -33 19
-86 24 -233 4 -104 13 -208 20 -230 13 -43 7 -119 -11 -141 -8 -10 -39 -14
-110 -14 -54 0 -109 -4 -122 -9 -29 -11 -60 -83 -55 -127 l3 -29 325 1 c532 3
505 2 531 23 29 23 32 87 5 106 -9 7 -59 23 -109 35 -147 36 -164 49 -168 125
-1 28 -9 66 -17 85 -30 72 -42 150 -36 220 6 58 3 77 -15 121 -21 49 -22 61
-19 299 3 232 4 250 24 276 11 15 27 31 35 35 33 17 124 39 160 39 31 0 46 8
79 38 24 24 40 48 40 62 0 40 -22 99 -46 121 -30 28 -106 34 -154 12z"/>
<path d="M515 3170 c-27 -29 -24 -88 4 -112 35 -27 85 -24 110 8 27 34 27 64
0 98 -26 33 -86 37 -114 6z"/>
<path d="M5691 3154 c-43 -54 -10 -124 58 -124 48 0 75 28 75 77 0 69 -90 101
-133 47z"/>
<path d="M4799 1910 c-29 -31 -32 -45 -3 -18 15 15 26 29 23 31 -2 2 -11 -4
-20 -13z"/>
<path d="M4736 1815 c-3 -8 -1 -15 4 -15 6 0 10 7 10 15 0 8 -2 15 -4 15 -2 0
-6 -7 -10 -15z"/>
<path d="M1078 1538 c-47 -90 -85 -165 -83 -166 2 -2 83 20 180 49 172 52 175
53 157 72 -19 18 -22 18 -132 -17 -62 -20 -115 -35 -117 -33 -1 2 22 48 52
103 60 107 61 112 42 137 -10 15 -23 -4 -99 -145z"/>
<path d="M5006 1608 c-26 -32 -49 -65 -50 -72 -1 -12 228 -206 243 -206 4 0
31 30 60 66 45 56 51 67 39 81 -11 14 -18 9 -58 -36 l-46 -52 -42 33 c-23 18
-42 35 -42 38 0 4 16 25 36 48 35 41 40 72 12 72 -7 0 -28 -21 -47 -45 -18
-25 -36 -45 -40 -45 -3 0 -19 12 -34 26 l-29 25 34 42 c49 60 51 65 31 75 -15
8 -27 -2 -67 -50z"/>
<path d="M4828 1403 c-16 -15 -12 -22 58 -98 40 -45 74 -84 74 -87 0 -3 -19
-3 -42 -2 -222 18 -292 23 -294 21 -2 -2 49 -60 113 -131 104 -115 117 -126
131 -112 14 13 10 21 -34 71 -27 31 -62 72 -78 91 l-29 35 29 -5 c16 -2 81 -7
144 -11 63 -3 127 -8 143 -11 15 -3 27 -3 27 1 0 5 -130 152 -209 238 -16 16
-18 16 -33 0z"/>
<path d="M5502 1325 c-29 -45 -22 -45 12 0 15 19 23 35 19 35 -4 0 -18 -16
-31 -35z"/>
<path d="M1335 1260 c-88 -37 -159 -72 -159 -76 3 -23 34 -28 69 -11 l36 17
55 -47 c29 -26 54 -49 54 -51 0 -3 -5 -22 -11 -43 -10 -30 -9 -42 1 -54 7 -9
16 -12 20 -8 7 7 110 323 110 337 0 10 -12 6 -175 -64z m93 -60 l-20 -60 -39
31 c-21 17 -39 33 -39 35 0 5 99 52 112 53 4 1 -2 -26 -14 -59z"/>
<path d="M5446 1242 c-4 -7 -13 -9 -19 -5 -7 4 -6 -1 2 -11 15 -18 37 -8 29
15 -3 10 -6 10 -12 1z"/>
<path d="M1624 1022 c-47 -70 -88 -131 -90 -137 -2 -5 22 -28 53 -49 53 -37
57 -38 69 -21 12 16 10 21 -24 43 -20 14 -39 26 -41 28 -2 2 30 52 71 111 41
59 77 113 81 118 3 6 -3 16 -13 23 -17 11 -27 0 -106 -116z"/>
<path d="M4421 1080 c-114 -27 -167 -172 -97 -265 36 -47 74 -65 139 -65 132
0 210 136 145 252 -35 61 -116 95 -187 78z m99 -53 c33 -17 70 -74 70 -109 0
-67 -58 -128 -122 -128 -51 0 -94 23 -114 62 -19 36 -21 97 -4 128 27 51 115
75 170 47z"/>
<path d="M1893 860 c-98 -134 -101 -140 -81 -151 16 -9 23 -8 29 2 4 8 31 45
58 84 l51 69 0 -112 c0 -61 2 -112 5 -112 3 0 42 31 87 70 45 38 83 68 85 67
1 -2 -11 -45 -26 -97 -28 -92 -28 -95 -10 -104 11 -5 21 -7 23 -5 6 7 94 329
89 329 -2 0 -49 -38 -103 -85 -54 -47 -101 -85 -104 -85 -4 0 -3 61 0 135 3
74 5 135 3 135 -2 0 -50 -63 -106 -140z"/>
<path d="M4037 878 c-15 -12 -10 -26 44 -153 33 -77 63 -143 67 -147 7 -7 132
42 132 51 0 3 -4 13 -10 21 -8 12 -14 12 -45 -3 -20 -9 -40 -17 -44 -17 -5 0
-32 55 -61 123 -29 67 -55 125 -59 130 -4 4 -14 1 -24 -5z"/>
<path d="M2387 657 c-110 -133 -116 -143 -96 -152 18 -8 26 -4 51 27 l29 37
66 -19 c72 -20 83 -30 83 -76 0 -24 5 -33 22 -37 12 -4 24 -5 25 -3 4 4 -54
357 -59 362 -2 1 -56 -61 -121 -139z m109 -26 l7 -53 -34 7 c-72 16 -72 16
-31 67 20 25 40 43 44 39 4 -3 10 -30 14 -60z"/>
<path d="M3765 790 c-6 -10 72 -288 86 -304 5 -6 34 -2 71 9 76 22 70 19 62
39 -5 14 -14 16 -41 11 -19 -3 -40 -8 -48 -11 -8 -4 -17 7 -23 28 -6 18 -25
79 -42 136 -29 96 -47 121 -65 92z"/>
<path d="M3487 733 c-3 -10 -26 -88 -51 -175 -25 -86 -46 -161 -46 -167 0 -7
8 -7 23 -2 14 5 26 22 33 47 11 41 14 42 117 57 35 5 39 3 62 -32 19 -31 28
-38 48 -34 24 5 22 10 -76 161 -55 87 -101 158 -103 160 -1 2 -5 -5 -7 -15z
m56 -139 c16 -26 25 -50 20 -55 -9 -9 -76 -16 -82 -9 -6 7 20 110 28 110 3 0
19 -21 34 -46z"/>
<path d="M2785 695 c-17 -16 -25 -35 -25 -58 0 -36 18 -58 82 -96 40 -24 53
-49 43 -81 -15 -48 -84 -45 -107 5 -15 34 -48 34 -48 0 0 -55 83 -99 142 -76
36 14 61 55 60 98 -2 42 -19 63 -77 98 -51 29 -62 51 -39 76 22 24 49 24 74
-1 11 -11 26 -17 35 -14 43 17 -16 74 -77 74 -28 0 -46 -7 -63 -25z"/>
<path d="M3070 680 c0 -17 7 -20 40 -20 l39 0 3 -136 c3 -133 4 -137 27 -145
l23 -9 -3 142 -4 143 38 3 c29 3 37 7 37 23 0 18 -8 19 -100 19 -93 0 -100 -1
-100 -20z"/>
</g>
</svg>
