<?xml version="1.0" encoding="iso-8859-1"?>
<!-- Generator: Adobe Illustrator 19.0.0, SVG Export Plug-In . SVG Version: 6.00 Build 0)  -->
<svg version="1.1" id="Layer_1" xmlns="http://www.w3.org/2000/svg" xmlns:xlink="http://www.w3.org/1999/xlink" x="0px" y="0px"
	 viewBox="0 0 511.999 511.999" style="enable-background:new 0 0 511.999 511.999;" xml:space="preserve">
<g>
	<g>
		<path d="M101.556,48.777v0.001H86.34H60.064C26.945,48.778,0,75.722,0,108.842v171.766h30.432V108.842
			c0-16.339,13.293-29.632,29.632-29.632H86.34v315.064c0,38.019,30.929,68.948,68.947,68.948h245.996
			c38.017,0,68.946-30.93,68.946-68.948V124.191l41.769-75.414H101.556z M439.799,116.327v277.947
			c0,21.239-17.277,38.516-38.514,38.516H155.288c-21.238,0-38.515-17.278-38.515-38.516V79.21h343.583L439.799,116.327z"/>
	</g>
</g>
<g>
	<g>
		<rect x="142.128" y="109.637" width="105.711" height="30.432"/>
	</g>
</g>
<g>
	<g>
		<rect x="142.128" y="160.367" width="75.786" height="30.432"/>
	</g>
</g>
<g>
	<g>
		<rect x="142.128" y="211.088" width="105.711" height="30.432"/>
	</g>
</g>
<g>
	<g>
		<rect x="142.128" y="261.798" width="75.786" height="30.432"/>
	</g>
</g>
<g>
	<g>
		<rect x="142.128" y="312.518" width="105.711" height="30.432"/>
	</g>
</g>
<g>
</g>
<g>
</g>
<g>
</g>
<g>
</g>
<g>
</g>
<g>
</g>
<g>
</g>
<g>
</g>
<g>
</g>
<g>
</g>
<g>
</g>
<g>
</g>
<g>
</g>
<g>
</g>
<g>
</g>
</svg>
