<?xml version="1.0" encoding="iso-8859-1"?>
<!-- Generator: Adobe Illustrator 18.0.0, SVG Export Plug-In . SVG Version: 6.00 Build 0)  -->
<!DOCTYPE svg PUBLIC "-//W3C//DTD SVG 1.1//EN" "http://www.w3.org/Graphics/SVG/1.1/DTD/svg11.dtd">
<svg version="1.1" id="Capa_1" xmlns="http://www.w3.org/2000/svg" xmlns:xlink="http://www.w3.org/1999/xlink" x="0px" y="0px"
	 viewBox="0 0 296.998 296.998" style="enable-background:new 0 0 296.998 296.998;" xml:space="preserve">
<path d="M296.998,131.288c0-15.047-12.238-27.288-27.281-27.288h-7.355V88.334c0-14.288-11.623-25.911-25.91-25.911h-57.342
	c-1.426-15.64-14.607-27.935-30.611-27.935s-29.184,12.296-30.609,27.935H60.545c-14.289,0-25.912,11.623-25.912,25.911V104h-7.35
	C12.238,104,0,116.241,0,131.288c0,13.674,10.113,25.029,23.256,26.982l-7.012,28.048c-5.002,20.016-1.496,39.057,9.871,53.616
	c11.367,14.559,28.99,22.576,49.623,22.576h145.52c20.633,0,38.256-8.018,49.623-22.576c11.367-14.559,14.873-33.6,9.871-53.616
	l-7.012-28.048C286.883,156.319,296.998,144.964,296.998,131.288z M148.498,54.419c4.988,0,9.188,3.402,10.43,8.004h-20.859
	C139.311,57.821,143.51,54.419,148.498,54.419z M54.564,88.334c0-3.24,2.738-5.979,5.98-5.979h175.906
	c3.24,0,5.979,2.739,5.979,5.979V104H54.564V88.334z M28.15,138.683c-4.055,0-8.221-3.342-8.221-7.395
	c0-4.057,3.299-7.356,7.353-7.356h4.555L28.15,138.683z M255.172,227.667c-7.51,9.616-19.553,14.912-33.914,14.912H75.738
	c-14.361,0-26.404-5.296-33.914-14.911c-7.508-9.616-9.727-22.584-6.244-36.517l16.801-67.22h192.234l16.801,67.22
	C264.896,205.083,262.68,218.052,255.172,227.667z M268.846,138.683l-3.686-14.751h4.557c4.053,0,7.352,3.3,7.352,7.356
	C277.068,135.341,272.898,138.683,268.846,138.683z"/>
<g>
</g>
<g>
</g>
<g>
</g>
<g>
</g>
<g>
</g>
<g>
</g>
<g>
</g>
<g>
</g>
<g>
</g>
<g>
</g>
<g>
</g>
<g>
</g>
<g>
</g>
<g>
</g>
<g>
</g>
</svg>
