<?xml version="1.0" standalone="no"?>
<!DOCTYPE svg PUBLIC "-//W3C//DTD SVG 20010904//EN"
 "http://www.w3.org/TR/2001/REC-SVG-20010904/DTD/svg10.dtd">
<svg version="1.0" xmlns="http://www.w3.org/2000/svg"
 width="80.000000pt" height="80.000000pt" viewBox="0 0 80.000000 80.000000"
 preserveAspectRatio="xMidYMid meet">
<metadata>
Created by potrace 1.16, written by Peter Selinger 2001-2019
</metadata>
<g transform="translate(0.000000,80.000000) scale(0.012821,-0.012759)"
fill="#000000" stroke="none">
<path d="M2850 6259 c-424 -35 -907 -183 -1270 -391 -412 -236 -768 -567
-1039 -968 -126 -185 -134 -202 -255 -500 -35 -85 -75 -178 -90 -207 -14 -29
-26 -66 -26 -82 0 -17 -11 -51 -25 -77 -14 -26 -25 -59 -25 -75 0 -15 -11 -49
-25 -76 -57 -110 -89 -398 -88 -788 1 -236 5 -315 21 -425 32 -206 90 -471
116 -520 7 -14 28 -71 46 -128 42 -134 197 -444 297 -597 88 -134 168 -235
317 -404 56 -62 110 -125 120 -138 28 -37 198 -183 213 -183 6 0 16 -6 20 -13
12 -20 252 -197 293 -216 19 -9 53 -28 76 -43 61 -39 325 -170 349 -173 30 -3
95 -28 95 -36 0 -10 293 -106 360 -118 30 -5 67 -14 82 -20 49 -18 152 -34
217 -32 44 1 67 -2 75 -12 23 -29 443 -47 621 -27 50 6 118 13 152 15 107 7
409 73 541 119 336 115 418 150 512 221 19 14 50 30 70 35 43 12 193 97 269
153 90 66 277 224 300 253 12 15 21 23 21 19 0 -4 23 13 52 36 68 57 204 210
296 333 40 55 88 118 106 140 92 115 246 400 351 651 50 118 73 202 85 305 4
36 8 52 8 35 3 -49 19 -16 35 75 9 47 22 119 31 160 17 87 20 186 6 195 -15 9
-12 25 5 25 17 0 19 53 7 125 -6 35 -10 23 -31 -100 -13 -77 -25 -178 -27
-225 -1 -49 -7 -86 -13 -88 -6 -2 -11 -10 -11 -18 0 -9 -4 -12 -10 -9 -6 4
-10 -9 -10 -32 -1 -21 -9 -63 -20 -93 -11 -30 -19 -62 -20 -72 0 -9 -5 -18
-11 -20 -6 -2 -31 -60 -54 -128 -84 -243 -172 -437 -191 -418 -3 3 1 12 9 20
8 8 18 25 22 38 6 24 5 23 -19 -5 -14 -16 -25 -35 -26 -40 0 -6 -11 -22 -25
-37 -28 -30 -33 -53 -10 -45 19 8 6 -27 -31 -83 -31 -47 -41 -52 -19 -10 9 16
12 30 7 30 -14 0 -61 -93 -59 -115 1 -14 -9 -25 -32 -37 -40 -20 -75 -56 -115
-121 -16 -25 -33 -44 -37 -42 -4 3 -13 -3 -20 -12 -11 -13 -11 -17 -1 -21 8
-2 3 -11 -13 -24 -14 -11 -24 -23 -21 -26 3 -2 14 1 23 9 10 7 7 1 -6 -14 -25
-27 -38 -36 -26 -17 8 13 -1 13 -28 -1 -23 -12 -137 -129 -137 -141 0 -5 5 -8
11 -8 7 0 0 -10 -15 -21 -15 -12 -25 -27 -22 -35 3 -7 0 -16 -6 -20 -6 -4 -8
-3 -5 3 4 6 -3 13 -14 16 -16 4 -30 -4 -55 -31 -34 -37 -45 -59 -21 -46 6 4 4
-2 -6 -13 -10 -11 -38 -28 -62 -38 -25 -9 -45 -22 -45 -28 0 -7 -9 -23 -20
-37 -11 -14 -20 -33 -20 -42 0 -10 -9 -22 -20 -28 -17 -9 -20 -8 -20 9 0 19
-3 19 -59 -8 -33 -15 -66 -35 -75 -44 -9 -8 -25 -19 -36 -22 -11 -4 -18 -11
-15 -16 4 -5 0 -11 -7 -13 -68 -20 -107 -40 -118 -61 -10 -18 -24 -26 -57 -31
-24 -3 -49 -12 -56 -18 -7 -6 -48 -29 -92 -51 -44 -22 -82 -43 -85 -46 -10
-13 -90 -49 -107 -49 -10 0 -38 -10 -63 -22 -25 -11 -55 -20 -67 -19 -13 0
-23 -3 -23 -8 0 -13 -33 -23 -39 -12 -8 12 -103 -17 -114 -36 -4 -7 -21 -13
-37 -13 -16 0 -35 -7 -44 -15 -8 -8 -30 -15 -48 -15 -18 0 -44 -7 -58 -15 -14
-8 -35 -19 -47 -24 -13 -6 -23 -14 -23 -19 0 -5 -15 -9 -32 -9 l-33 0 33 14
c34 14 45 39 12 30 -10 -3 -20 -1 -22 3 -3 9 -98 -10 -142 -29 -21 -8 -38 -9
-55 -2 -14 5 -42 8 -61 6 -19 -2 -150 -4 -290 -5 -206 -1 -268 2 -325 16 -38
9 -81 16 -94 16 -14 0 -38 6 -55 13 -17 7 -61 16 -99 20 -37 4 -70 11 -73 16
-3 5 -20 9 -39 9 -19 0 -37 5 -40 11 -4 6 -14 8 -22 4 -9 -3 -34 3 -57 14 -23
11 -102 42 -176 70 -116 43 -279 120 -451 213 -25 13 -96 59 -158 101 -62 42
-120 77 -128 77 -26 0 -72 33 -77 55 -3 13 -39 48 -81 79 -41 31 -85 70 -97
87 -12 16 -52 56 -88 87 -36 31 -66 59 -66 62 -2 18 -27 50 -39 50 -8 0 -15 5
-15 10 0 6 -19 32 -43 58 -23 26 -56 65 -72 87 -15 22 -42 54 -59 71 -47 47
-89 111 -90 137 -1 13 -16 42 -34 64 -17 23 -32 48 -32 57 0 8 -21 41 -46 72
-25 31 -47 69 -50 86 -2 17 -9 37 -16 46 -13 15 -35 72 -102 257 -18 50 -37
99 -43 110 -6 11 -18 55 -28 97 -10 43 -22 75 -27 71 -6 -3 -8 3 -4 14 4 12
-1 28 -14 43 -11 13 -20 27 -20 31 0 4 -3 16 -6 26 -5 15 -4 15 5 3 9 -12 11
-11 11 10 0 30 -29 167 -41 195 -15 32 -31 735 -17 735 10 0 18 48 23 148 2
52 8 99 13 105 5 7 17 48 25 91 9 44 20 82 25 85 5 3 12 29 16 57 8 67 129
426 155 463 12 16 21 32 21 36 0 16 101 216 117 232 10 10 34 48 53 85 20 38
43 69 53 72 11 2 17 11 15 18 -3 7 8 32 24 55 15 23 37 62 48 87 11 27 52 78
102 129 112 113 138 143 170 194 16 24 32 41 38 38 5 -3 38 31 74 75 81 100
142 153 169 146 13 -3 34 5 56 23 20 16 61 44 91 63 30 20 73 52 94 71 21 20
42 35 45 34 3 -1 7 2 8 7 2 12 25 26 45 26 9 0 45 17 80 37 68 40 382 183 402
183 6 0 22 8 36 17 13 9 31 18 40 19 8 1 58 14 110 28 52 15 120 31 150 37 30
6 73 18 95 25 23 8 53 14 67 14 15 0 57 7 95 16 147 35 936 18 976 -20 7 -6
26 -13 42 -14 55 -4 275 -62 350 -92 11 -5 29 -11 40 -13 59 -15 324 -115 365
-138 8 -4 66 -35 127 -68 246 -131 464 -284 623 -436 41 -40 94 -84 118 -99
23 -14 42 -32 42 -39 0 -8 12 -24 26 -38 74 -69 191 -220 268 -349 96 -158
347 -658 348 -693 1 -12 14 -60 30 -107 43 -124 71 -251 123 -555 50 -296 60
-341 77 -351 8 -5 9 25 4 112 -27 469 -134 941 -278 1228 -282 564 -651 993
-1119 1302 -107 70 -303 177 -311 169 -3 -3 -38 12 -79 34 -170 89 -479 188
-691 221 -73 11 -181 29 -241 41 -197 37 -430 47 -667 28z"/>
<path d="M3156 5723 c-65 -125 -84 -168 -74 -175 26 -16 43 -7 66 33 l23 40
66 -3 66 -3 15 -42 c12 -38 17 -43 43 -43 16 0 29 3 29 8 1 14 -134 352 -140
352 -4 0 -46 -75 -94 -167z"/>
<path d="M2507 5672 c-21 -92 -41 -177 -44 -190 -5 -21 -2 -23 23 -20 23 2 30
10 39 40 13 49 20 54 85 67 l54 12 31 -37 c28 -33 34 -36 59 -28 l27 9 -113
157 c-62 87 -115 158 -118 158 -3 0 -22 -75 -43 -168z"/>
<path d="M3592 5803 c-18 -9 -45 -32 -60 -51 -23 -30 -27 -45 -27 -103 0 -76
16 -106 76 -147 29 -20 44 -23 97 -20 54 3 67 8 93 34 17 17 36 48 44 70 l13
39 -41 11 c-104 27 -107 26 -107 -5 0 -25 5 -30 35 -35 44 -9 44 -21 3 -46
-40 -24 -60 -25 -98 -5 -82 42 -79 170 6 210 49 23 95 13 131 -29 25 -27 33
-31 51 -23 27 12 27 21 2 57 -40 57 -147 78 -218 43z"/>
<path d="M4023 5703 c-3 -10 -30 -79 -59 -153 l-53 -135 27 -12 c27 -11 27
-10 53 54 l25 65 19 -83 c17 -74 22 -83 49 -94 17 -8 32 -12 33 -11 1 1 -7 35
-17 76 -24 93 -24 90 1 90 35 0 79 53 79 95 0 53 -15 74 -73 101 -62 29 -76
30 -84 7z"/>
<path d="M2088 5679 c-32 -11 -58 -25 -58 -31 0 -6 25 -78 57 -159 63 -167 51
-158 149 -114 65 29 96 72 102 140 3 39 -1 62 -17 92 -43 85 -126 110 -233 72z
m158 -73 c57 -57 43 -141 -28 -177 -36 -19 -39 -19 -45 -2 -3 10 -21 56 -39
103 -30 78 -32 86 -17 98 9 6 34 12 56 12 31 0 46 -7 73 -34z"/>
<path d="M4308 5420 l-78 -148 25 -16 24 -16 52 98 c28 53 65 120 81 149 l29
52 -28 14 -28 15 -77 -148z"/>
<path d="M1816 5547 c-18 -13 -17 -18 33 -101 29 -48 51 -89 49 -91 -2 -3 -74
15 -159 39 -84 24 -155 42 -157 40 -7 -5 173 -303 184 -303 5 -1 18 5 28 12
17 12 14 19 -34 101 -28 48 -50 90 -47 92 3 3 71 -14 151 -36 81 -23 151 -40
155 -38 9 4 -160 290 -174 295 -6 2 -19 -3 -29 -10z"/>
<path d="M4576 5390 c-34 -11 -82 -54 -102 -92 -20 -39 -17 -112 6 -157 21
-42 69 -77 117 -87 24 -5 33 -1 46 20 23 35 22 36 -22 36 -30 0 -46 7 -69 30
-73 72 -31 186 72 197 55 7 87 -11 114 -64 l19 -36 16 24 c22 31 21 41 -5 74
-41 52 -122 76 -192 55z"/>
<path d="M2782 5330 c-595 -94 -1100 -405 -1448 -890 -93 -130 -138 -213 -192
-356 -28 -72 -62 -154 -76 -182 -14 -28 -26 -63 -26 -76 0 -14 -9 -40 -20 -58
-11 -18 -20 -48 -20 -65 0 -18 -4 -33 -9 -33 -38 0 -71 -256 -71 -555 0 -232
8 -315 45 -485 13 -58 26 -124 30 -147 4 -24 11 -45 16 -48 5 -3 20 -44 35
-91 46 -152 186 -405 310 -560 148 -185 339 -384 370 -384 7 0 14 -4 16 -9 5
-14 175 -139 200 -147 13 -4 37 -17 53 -30 17 -13 76 -45 130 -71 101 -48 107
-50 137 -52 9 0 23 -7 30 -13 17 -17 226 -88 256 -88 12 0 51 -9 85 -21 43
-14 77 -20 111 -16 55 5 89 -1 80 -14 -3 -5 5 -9 18 -9 13 -1 82 -5 153 -9
268 -17 635 37 829 123 30 13 80 32 112 41 60 17 161 72 184 100 7 8 20 15 29
15 20 0 153 71 203 108 74 55 199 165 209 183 5 10 13 18 18 16 20 -6 183 169
251 268 18 28 44 61 58 75 24 25 162 251 162 266 0 4 16 39 36 77 66 127 107
246 108 314 1 43 4 56 10 45 8 -14 10 -14 17 3 4 11 8 35 8 53 1 18 6 42 11
52 6 11 13 41 16 67 3 26 8 67 11 89 3 25 1 44 -6 48 -6 4 -11 12 -11 17 0 6
5 7 10 4 11 -7 12 32 1 80 -6 27 -8 22 -26 -45 -10 -41 -19 -110 -19 -153 -1
-57 -5 -80 -16 -87 -12 -7 -33 -77 -44 -144 -1 -11 -8 -22 -14 -24 -7 -2 -22
-36 -33 -75 -12 -40 -32 -92 -44 -117 -12 -25 -30 -70 -40 -100 -17 -53 -43
-95 -53 -85 -3 2 1 11 8 19 6 9 10 21 8 28 -3 7 -16 -6 -31 -30 -15 -23 -32
-42 -37 -42 -6 0 -10 -5 -10 -11 0 -6 9 -9 19 -6 24 6 19 -9 -22 -73 -16 -25
-26 -36 -22 -25 17 46 15 57 -5 22 -12 -22 -19 -45 -16 -53 5 -14 -27 -38 -37
-28 -8 9 -52 -39 -77 -84 -14 -25 -27 -38 -31 -31 -5 8 -8 8 -13 0 -4 -6 -5
-15 -1 -20 3 -5 1 -12 -5 -16 -5 -3 -10 -11 -10 -17 0 -6 7 -5 18 3 15 12 16
12 4 -2 -7 -10 -21 -14 -36 -12 -15 3 -30 -2 -40 -14 -55 -62 -66 -78 -62 -89
7 -17 -28 -46 -46 -39 -10 4 -23 -4 -37 -23 -24 -34 -27 -47 -8 -36 9 6 8 3
-1 -8 -7 -9 -27 -20 -43 -23 -28 -6 -53 -42 -61 -88 -2 -10 -7 -18 -13 -18
-18 0 -17 32 1 52 20 22 8 25 -20 4 -10 -7 -15 -18 -12 -23 3 -5 -15 -17 -39
-27 -25 -9 -45 -20 -45 -25 0 -4 -9 -10 -21 -13 -12 -3 -18 -10 -14 -17 4 -7
1 -10 -6 -9 -20 3 -69 -12 -69 -21 0 -17 -32 -40 -57 -40 -14 0 -37 -8 -51
-17 -46 -30 -66 -43 -82 -50 -8 -4 -21 -13 -28 -20 -7 -7 -25 -16 -40 -19 -15
-3 -42 -12 -60 -20 -18 -8 -42 -14 -52 -14 -11 0 -20 -4 -20 -9 0 -5 -7 -12
-16 -15 -8 -3 -12 -2 -9 4 8 13 -1 12 -48 -1 -21 -5 -35 -14 -32 -20 4 -5 -8
-9 -25 -9 -17 0 -33 -6 -36 -13 -3 -8 -17 -14 -33 -14 -30 0 -80 -31 -81 -50
0 -7 -9 -9 -22 -5 l-22 5 22 10 c28 13 28 23 1 30 -28 8 -78 -2 -107 -21 -17
-11 -25 -12 -36 -3 -9 8 -49 10 -122 7 -235 -11 -299 -9 -354 6 -30 9 -62 16
-70 17 -8 0 -46 8 -85 16 -38 9 -80 18 -92 19 -13 1 -26 5 -29 9 -3 3 -12 3
-20 0 -8 -3 -25 2 -37 10 -13 8 -64 29 -113 47 -78 27 -163 67 -309 145 -59
31 -157 94 -182 117 -12 11 -26 17 -32 14 -16 -10 -51 12 -51 32 0 9 -17 28
-37 42 -20 14 -71 60 -113 102 -43 43 -81 74 -85 70 -5 -4 -5 1 -2 11 5 14 2
20 -13 24 -11 3 -20 11 -20 19 0 7 -10 20 -22 29 -13 8 -32 32 -44 53 -11 20
-30 41 -42 47 -12 5 -25 17 -27 26 -3 9 -14 24 -25 34 -11 10 -20 30 -20 45 0
15 -9 35 -20 45 -11 10 -20 24 -20 32 0 7 -16 30 -35 52 -19 21 -35 47 -35 57
0 11 -6 28 -13 39 -8 11 -30 67 -51 125 -20 58 -43 119 -50 135 -7 17 -19 55
-26 85 -7 30 -21 63 -31 73 -21 20 -24 34 -8 39 7 2 7 19 -1 53 -7 28 -12 60
-12 72 0 12 -6 24 -13 27 -10 3 -12 57 -10 232 2 125 -1 238 -5 250 -6 15 -5
24 3 27 7 2 13 34 15 83 2 43 8 83 13 89 5 5 9 20 9 35 0 14 9 45 20 69 11 24
20 54 20 68 0 31 75 269 94 298 7 11 28 54 45 95 18 41 40 82 49 90 9 8 28 39
41 67 14 30 33 55 44 59 14 4 16 8 7 14 -9 5 -9 9 -1 14 10 7 49 75 49 86 0
15 46 80 57 80 7 0 29 19 49 43 20 23 43 49 50 57 7 8 21 30 30 48 9 18 21 30
26 27 9 -6 54 44 75 85 20 38 84 85 97 72 11 -11 114 54 167 105 13 13 30 23
37 23 8 0 14 6 14 14 0 8 6 13 13 13 6 -1 73 28 147 64 74 36 151 72 170 79
19 7 41 18 49 24 7 5 18 11 25 12 6 1 49 12 96 24 112 29 155 39 215 51 167
32 745 25 745 -9 0 -4 12 -8 27 -9 15 0 55 -9 88 -18 33 -9 78 -22 100 -28 22
-6 45 -13 50 -17 6 -4 44 -17 85 -30 41 -13 100 -34 131 -46 31 -13 62 -24 68
-24 6 0 11 -4 11 -10 0 -5 5 -10 12 -10 17 0 195 -102 308 -176 52 -35 134
-98 182 -142 47 -44 96 -83 107 -87 12 -3 21 -11 21 -17 0 -6 34 -48 75 -93
41 -46 75 -85 75 -88 0 -3 19 -36 42 -73 58 -97 258 -499 258 -521 0 -10 8
-40 19 -68 22 -59 49 -180 92 -404 32 -168 51 -231 70 -231 6 0 8 14 5 33 -3
17 -8 70 -11 117 -14 201 -53 418 -111 612 -33 113 -104 261 -202 423 -123
205 -364 474 -548 613 -128 96 -289 191 -334 196 -18 2 -35 8 -39 14 -8 14
-80 45 -201 87 -139 49 -233 72 -341 85 -53 6 -120 18 -150 26 -90 26 -452 28
-607 4z"/>
<path d="M1370 5253 c-36 -31 -66 -60 -68 -64 -2 -5 43 -64 99 -131 56 -68
104 -125 105 -127 4 -4 144 111 144 119 0 3 -6 15 -14 25 -14 19 -16 18 -64
-22 l-50 -43 -33 37 -32 37 49 43 c48 43 48 43 29 63 -20 19 -20 19 -66 -20
l-46 -39 -24 25 -24 25 49 43 c45 39 48 43 35 64 -8 12 -16 22 -19 21 -3 0
-34 -25 -70 -56z"/>
<path d="M4851 5108 c-60 -41 -76 -71 -76 -147 0 -59 4 -72 28 -104 37 -49 80
-70 142 -70 79 0 129 33 160 106 30 73 6 163 -56 208 -50 35 -151 39 -198 7z
m148 -42 c68 -36 82 -121 30 -180 -72 -82 -199 -40 -199 66 0 94 90 154 169
114z"/>
<path d="M1134 5039 c-18 -19 -16 -22 96 -134 63 -63 120 -115 126 -115 6 0
18 8 27 18 16 17 10 25 -107 135 -122 115 -124 116 -142 96z"/>
<path d="M937 4813 c-61 -82 -65 -89 -50 -105 9 -10 19 -18 23 -18 3 0 21 20
40 45 19 25 37 45 41 45 3 0 33 -63 65 -140 32 -77 61 -139 65 -138 4 2 39 45
79 96 67 88 71 94 53 107 -10 8 -21 15 -25 15 -4 0 -26 -25 -49 -55 -23 -31
-45 -52 -49 -48 -4 4 -33 70 -64 146 -32 75 -59 137 -60 137 -1 0 -32 -39 -69
-87z"/>
<path d="M5163 4712 c-74 -54 -131 -102 -128 -109 6 -18 78 -113 85 -113 3 0
15 6 26 14 19 14 19 15 -2 43 -11 15 -23 33 -27 39 -4 7 36 43 103 93 61 44
110 84 110 89 0 5 -8 16 -17 25 -17 14 -28 8 -150 -81z"/>
<path d="M689 4443 c25 -43 219 -298 227 -297 5 0 13 12 18 26 7 20 4 32 -15
57 l-23 32 31 57 c32 56 33 57 73 54 41 -3 69 14 70 44 0 7 -63 15 -177 23
-98 7 -186 15 -196 18 -16 4 -17 2 -8 -14z"/>
<path d="M5298 4420 c-59 -3 -110 -9 -113 -12 -4 -4 -2 -15 4 -27 8 -15 23
-21 59 -23 46 -3 48 -4 76 -59 l30 -56 -26 -33 c-25 -32 -26 -35 -11 -63 8
-16 18 -25 22 -21 5 5 54 70 111 144 56 74 107 141 113 148 11 13 -67 14 -265
2z"/>
<path d="M1845 4374 c-27 -8 -79 -14 -115 -14 -139 0 -147 -70 -18 -151 71
-44 106 -77 128 -120 18 -35 60 -179 60 -206 0 -7 25 -46 55 -86 67 -88 77
-108 111 -228 15 -52 40 -114 55 -139 15 -25 48 -99 74 -165 26 -66 55 -136
65 -155 21 -43 66 -173 75 -219 4 -18 19 -56 33 -84 37 -70 111 -102 189 -81
29 8 43 56 43 146 0 44 9 95 26 150 45 142 154 430 191 503 92 180 120 233
139 260 12 17 33 56 47 88 15 32 40 78 56 102 17 25 33 60 36 79 12 60 48 83
173 111 62 13 121 29 132 35 62 33 49 157 -17 161 -79 6 -154 3 -245 -9 -77
-10 -112 -10 -127 -3 -25 14 -184 14 -234 0 -82 -23 -86 -93 -7 -139 27 -16
46 -35 48 -47 6 -39 -48 -177 -147 -378 -54 -110 -111 -226 -126 -258 -15 -32
-34 -61 -42 -64 -25 -10 -74 49 -123 152 -47 97 -104 244 -114 296 -3 14 -27
50 -54 81 -49 56 -77 123 -70 169 2 19 16 28 71 49 89 34 127 65 133 110 9 65
9 65 -233 66 -151 0 -233 -3 -268 -12z"/>
<path d="M4451 3489 c-30 -11 -73 -20 -95 -19 -23 0 -81 1 -131 3 l-89 2 -23
-33 c-12 -19 -25 -55 -28 -80 -10 -79 -13 -85 -61 -149 -28 -39 -51 -84 -61
-119 -8 -31 -50 -136 -93 -233 -43 -97 -92 -216 -109 -264 -17 -48 -41 -103
-54 -122 l-24 -35 -13 28 c-26 55 -63 174 -141 447 -44 154 -98 338 -121 409
-39 121 -43 129 -74 142 -47 20 -242 19 -268 -1 -13 -10 -44 -15 -91 -15 -80
0 -115 -17 -115 -56 0 -27 9 -36 99 -102 60 -45 65 -51 88 -122 19 -61 23 -89
19 -150 -8 -112 -22 -215 -31 -230 -5 -8 -12 -73 -17 -145 -18 -308 -42 -446
-97 -554 -19 -36 -22 -38 -98 -49 -43 -7 -97 -12 -121 -12 -52 0 -103 -20
-137 -54 -34 -34 -32 -62 8 -87 33 -20 91 -21 203 -4 26 5 89 -2 181 -19 257
-47 353 -33 353 54 0 44 -11 56 -64 65 -21 4 -52 20 -68 34 -41 36 -45 87 -19
240 12 71 21 168 21 230 0 58 6 129 14 158 17 62 47 126 61 127 22 2 57 -87
67 -167 11 -96 35 -176 93 -308 29 -65 46 -121 54 -180 7 -46 22 -103 34 -127
20 -38 26 -42 58 -42 33 0 39 5 72 58 45 71 81 143 102 204 9 26 27 62 40 80
13 18 47 71 76 118 112 183 191 300 200 295 24 -16 39 -114 39 -260 0 -106 5
-167 15 -201 22 -72 20 -149 -5 -174 -17 -17 -33 -20 -119 -20 -55 0 -107 -3
-116 -6 -37 -15 -66 -125 -42 -158 14 -19 20 -19 178 -7 125 9 198 10 304 2
96 -8 151 -8 175 -1 19 5 71 10 116 10 96 0 114 12 114 78 0 50 -16 60 -136
90 -146 37 -156 45 -165 136 -4 34 -17 93 -29 131 -17 56 -20 86 -16 150 4 66
1 89 -15 124 -17 39 -19 67 -19 291 0 241 1 248 23 281 27 40 95 67 174 68 48
1 57 5 99 46 45 42 46 46 40 86 -19 119 -98 162 -215 118z"/>
<path d="M515 3175 c-52 -51 -16 -145 54 -145 46 0 85 39 85 85 0 74 -88 112
-139 60z"/>
<path d="M5694 3166 c-83 -70 24 -192 110 -125 20 16 26 29 26 60 0 78 -78
116 -136 65z"/>
<path d="M1067 1534 c-48 -92 -86 -169 -83 -171 5 -5 340 92 363 105 8 5 6 14
-7 30 l-19 23 -113 -35 c-61 -20 -113 -34 -114 -33 -1 1 23 46 53 101 48 85
54 102 44 122 -6 13 -16 24 -23 24 -7 0 -53 -75 -101 -166z"/>
<path d="M5001 1613 c-30 -37 -54 -72 -55 -78 -1 -12 239 -215 253 -215 4 0
33 32 65 71 l59 71 -21 21 c-12 11 -23 19 -25 16 -40 -52 -81 -99 -86 -99 -3
0 -21 14 -40 31 l-33 31 29 36 c43 54 46 61 33 77 -20 24 -34 18 -70 -30 -19
-25 -36 -45 -39 -45 -3 1 -17 9 -29 20 l-24 20 41 51 c41 52 43 62 13 78 -14
7 -28 -4 -71 -56z"/>
<path d="M4823 1408 l-22 -21 77 -85 77 -85 -45 6 c-25 3 -94 9 -155 12 -60 4
-118 9 -127 11 -31 9 -20 -8 59 -96 170 -190 163 -183 184 -164 10 9 19 20 19
23 0 3 -32 41 -71 85 -38 43 -69 80 -67 82 2 2 79 -2 170 -9 150 -11 166 -11
155 3 -11 14 -181 205 -216 243 -16 16 -18 16 -38 -5z"/>
<path d="M1330 1267 c-91 -38 -167 -72 -169 -74 -3 -2 5 -13 16 -25 21 -20 23
-20 63 -4 l42 17 41 -37 c23 -20 46 -40 50 -44 5 -4 3 -26 -4 -49 -11 -39 -11
-44 9 -63 12 -12 23 -20 26 -17 5 5 116 351 116 362 0 14 -26 5 -190 -66z"/>
<path d="M1677 1112 c-85 -118 -158 -235 -150 -241 4 -4 32 -24 61 -45 43 -30
56 -35 68 -25 22 18 17 35 -21 63 l-35 27 80 119 79 118 -24 16 c-23 15 -24
14 -58 -32z"/>
<path d="M4385 1074 c-40 -20 -64 -43 -80 -74 -61 -122 21 -260 154 -260 137
0 220 133 160 257 -39 81 -154 119 -234 77z m120 -48 c69 -29 97 -125 53 -181
-47 -60 -125 -66 -178 -13 -60 59 -45 153 30 190 42 22 51 22 95 4z"/>
<path d="M1889 868 c-57 -78 -105 -145 -107 -148 -4 -10 50 -32 58 -23 4 4 28
38 54 76 26 37 50 67 52 67 2 0 1 -51 -3 -112 -7 -129 -17 -126 92 -33 33 28
65 54 71 58 6 4 0 -32 -15 -79 -25 -85 -25 -86 -6 -100 11 -8 23 -13 29 -11
12 4 106 347 95 347 -5 0 -54 -39 -110 -87 l-101 -86 4 136 c2 76 1 137 -2
137 -4 0 -53 -64 -111 -142z"/>
<path d="M4037 888 c-16 -6 -26 -15 -24 -22 46 -108 128 -301 130 -303 2 -1
35 11 73 27 53 22 68 33 66 47 -6 31 -18 34 -61 17 -23 -9 -43 -15 -45 -13 -2
2 -27 60 -56 129 -29 69 -53 126 -54 126 0 1 -14 -3 -29 -8z"/>
<path d="M2385 666 c-66 -79 -121 -148 -123 -154 -1 -5 10 -12 25 -15 23 -5
33 0 58 29 l30 34 65 -18 c63 -18 65 -20 71 -56 7 -42 14 -51 48 -61 21 -6 23
-5 18 16 -3 13 -18 102 -33 197 -15 94 -30 172 -34 172 -3 0 -59 -65 -125
-144z"/>
<path d="M3768 803 c-10 -2 -18 -8 -18 -11 0 -26 96 -322 104 -322 6 0 38 9
71 19 51 16 60 22 60 42 0 26 -13 29 -70 15 l-30 -6 -39 135 c-22 74 -45 134
-50 134 -6 -1 -19 -3 -28 -6z"/>
<path d="M3488 754 c-6 -10 -108 -359 -108 -368 0 -3 13 -6 29 -6 25 0 30 5
41 44 13 48 12 47 106 61 39 6 43 5 64 -29 17 -28 28 -36 51 -36 17 0 29 5 29
13 -1 18 -207 330 -212 321z"/>
<path d="M2798 715 c-79 -45 -56 -131 50 -187 23 -12 32 -24 32 -42 0 -29 -24
-56 -49 -56 -22 0 -51 31 -51 53 0 18 -26 22 -49 8 -19 -12 -7 -56 24 -87 19
-19 34 -24 75 -24 44 0 56 5 81 29 56 57 33 138 -52 182 -45 23 -57 42 -39 64
17 21 58 19 72 -4 9 -16 16 -17 35 -8 29 13 29 28 -1 56 -31 29 -92 36 -128
16z"/>
<path d="M3064 694 c3 -9 6 -22 6 -30 0 -9 11 -14 34 -14 l34 0 7 -140 8 -140
26 0 27 0 -4 145 -5 145 42 0 c37 0 41 2 41 25 l0 25 -111 0 c-97 0 -110 -2
-105 -16z"/>
</g>
</svg>
